<svg xmlns="http://www.w3.org/2000/svg" viewBox="0 0 96 96" role="img" aria-labelledby="title desc">
  <title id="title">見守りタスク ロゴ</title>
  <desc id="desc">見守りを表す盾、服薬確認を表すチェック、家族の安心を表すハートのロゴ。</desc>
  <defs>
    <linearGradient id="pink" x1="18" y1="10" x2="76" y2="86" gradientUnits="userSpaceOnUse">
      <stop offset="0" stop-color="#f06aa8"/>
      <stop offset="1" stop-color="#d63384"/>
    </linearGradient>
    <linearGradient id="blue" x1="22" y1="18" x2="78" y2="82" gradientUnits="userSpaceOnUse">
      <stop offset="0" stop-color="#65a8ee"/>
      <stop offset="1" stop-color="#2f7fd1"/>
    </linearGradient>
  </defs>
  <circle cx="48" cy="48" r="44" fill="#fff0f7"/>
  <path d="M48 11 75 22v22c0 20-11 32-27 41-16-9-27-21-27-41V22l27-11Z" fill="url(#pink)"/>
  <path d="M48 19 68 27v17c0 15-8 25-20 32-12-7-20-17-20-32V27l20-8Z" fill="#ffffff" opacity=".96"/>
  <path d="M48 28c6-8 20-4 20 8 0 11-13 19-20 24-7-5-20-13-20-24 0-12 14-16 20-8Z" fill="#f7bd24"/>
  <circle cx="62" cy="63" r="18" fill="url(#blue)" stroke="#ffffff" stroke-width="6"/>
  <path d="m53 63 6 6 12-15" fill="none" stroke="#ffffff" stroke-width="6" stroke-linecap="round" stroke-linejoin="round"/>
</svg>
