<svg xmlns="http://www.w3.org/2000/svg" viewBox="0 0 760 260" role="img" aria-labelledby="title desc">
  <title id="title">Senior task monitoring illustration</title>
  <desc id="desc">A senior-friendly task monitoring scene with a checklist, medicine markers, family support, and calm home care.</desc>
  <defs>
    <linearGradient id="bg" x1="0" x2="1" y1="0" y2="1">
      <stop offset="0" stop-color="#fff7d8"/>
      <stop offset="0.48" stop-color="#fff0f7"/>
      <stop offset="1" stop-color="#e8f2ff"/>
    </linearGradient>
    <linearGradient id="pink" x1="0" x2="1">
      <stop offset="0" stop-color="#d63384"/>
      <stop offset="1" stop-color="#f06aa8"/>
    </linearGradient>
    <filter id="shadow" x="-20%" y="-20%" width="140%" height="150%">
      <feDropShadow dx="0" dy="10" stdDeviation="12" flood-color="#6f3d5a" flood-opacity="0.16"/>
    </filter>
  </defs>

  <rect width="760" height="260" rx="28" fill="url(#bg)"/>
  <circle cx="660" cy="34" r="82" fill="#ffffff" opacity="0.48"/>
  <circle cx="86" cy="230" r="118" fill="#ffffff" opacity="0.38"/>

  <g filter="url(#shadow)">
    <rect x="58" y="42" width="282" height="176" rx="24" fill="#ffffff"/>
    <rect x="82" y="68" width="128" height="14" rx="7" fill="#d63384"/>
    <rect x="82" y="100" width="204" height="18" rx="9" fill="#fff6d8"/>
    <circle cx="96" cy="109" r="6" fill="#f7bd24"/>
    <rect x="82" y="132" width="178" height="18" rx="9" fill="#e8f2ff"/>
    <circle cx="96" cy="141" r="6" fill="#2f7fd1"/>
    <rect x="82" y="164" width="214" height="18" rx="9" fill="#fff0f7"/>
    <circle cx="96" cy="173" r="6" fill="#d63384"/>
  </g>

  <g filter="url(#shadow)">
    <rect x="388" y="54" width="154" height="150" rx="30" fill="#ffffff"/>
    <circle cx="465" cy="105" r="38" fill="#ffd6a8"/>
    <path d="M427 105c2-34 19-53 40-53 24 0 41 19 38 54-10-18-29-20-45-18-15 2-25 7-33 17Z" fill="#6c4a35"/>
    <path d="M421 184c7-30 25-47 44-47s38 17 45 47" fill="#2f7fd1"/>
    <path d="M442 116c9 13 35 13 45 0" fill="none" stroke="#7d5138" stroke-width="5" stroke-linecap="round"/>
  </g>

  <g filter="url(#shadow)">
    <rect x="554" y="72" width="142" height="108" rx="28" fill="#ffffff"/>
    <circle cx="604" cy="120" r="25" fill="#ffd6a8"/>
    <path d="M582 120c2-22 13-34 26-34 16 0 27 13 25 34-7-10-19-12-29-11-10 2-17 5-22 11Z" fill="#7a5339"/>
    <circle cx="649" cy="122" r="24" fill="#cfe4ff"/>
    <path d="M628 148c6-15 17-23 29-23 11 0 22 8 29 23" fill="#d63384"/>
    <path d="M585 132c6 7 21 7 27 0" fill="none" stroke="#7d5138" stroke-width="4" stroke-linecap="round"/>
  </g>

  <g filter="url(#shadow)">
    <rect x="362" y="172" width="310" height="54" rx="18" fill="#ffffff"/>
    <circle cx="396" cy="199" r="14" fill="#d63384"/>
    <path d="M389 198l5 6 10-12" fill="none" stroke="#ffffff" stroke-width="5" stroke-linecap="round" stroke-linejoin="round"/>
    <rect x="425" y="188" width="88" height="22" rx="11" fill="#fff0f7"/>
    <rect x="526" y="188" width="56" height="22" rx="11" fill="#fff6d8"/>
    <rect x="596" y="188" width="42" height="22" rx="11" fill="#e8f2ff"/>
  </g>

  <path d="M331 58c28 16 45 38 52 66" fill="none" stroke="#d63384" stroke-width="8" stroke-linecap="round" opacity="0.32"/>
  <path d="M548 74c-26 10-43 25-55 48" fill="none" stroke="#2f7fd1" stroke-width="8" stroke-linecap="round" opacity="0.32"/>
  <path d="M316 206c24 13 46 15 66 6" fill="none" stroke="#f7bd24" stroke-width="8" stroke-linecap="round" opacity="0.58"/>
</svg>
