<svg xmlns="http://www.w3.org/2000/svg" viewBox="0 0 120 120" role="img" aria-labelledby="title">
  <title id="title">見守り状況</title>
  <rect width="120" height="120" rx="60" fill="#fff4e8"/>
  <circle cx="60" cy="60" r="48" fill="#ff7a1a" opacity=".16"/>
  <path d="M60 22 92 34v24c0 21-13.4 37.6-32 44-18.6-6.4-32-23-32-44V34l32-12Z" fill="#ff7a1a"/>
  <path d="M60 32 82 40v18c0 14.5-8.8 26.2-22 31.4C46.8 84.2 38 72.5 38 58V40l22-8Z" fill="#fff"/>
  <path d="M60 68c-9.4-6.2-17-12.7-17-21.1 0-5.4 4.2-9.4 9.3-9.4 3.2 0 6.1 1.6 7.7 4.1 1.6-2.5 4.5-4.1 7.7-4.1 5.1 0 9.3 4 9.3 9.4C77 55.3 69.4 61.8 60 68Z" fill="#188038"/>
  <path d="M49 77h22" stroke="#ff7a1a" stroke-width="6" stroke-linecap="round"/>
</svg>
